<mxfile host="app.diagrams.net" agent="Mozilla/5.0 (Windows NT 10.0; Win64; x64) AppleWebKit/537.36 (KHTML, like Gecko) Chrome/134.0.0.0 Safari/537.36" version="26.1.0">
  <diagram id="C5RBs43oDa-KdzZeNtuy" name="Page-1">
    <mxGraphModel grid="1" page="1" gridSize="10" guides="1" tooltips="1" connect="1" arrows="1" fold="1" pageScale="1" pageWidth="827" pageHeight="1169" math="0" shadow="0">
      <root>
        <mxCell id="WIyWlLk6GJQsqaUBKTNV-0" />
        <mxCell id="WIyWlLk6GJQsqaUBKTNV-1" parent="WIyWlLk6GJQsqaUBKTNV-0" />
        <mxCell id="l_mH8X4KawMlUzGO-z-k-4" value="User" style="swimlane;fontStyle=1;align=center;verticalAlign=top;childLayout=stackLayout;horizontal=1;startSize=26;horizontalStack=0;resizeParent=1;resizeParentMax=0;resizeLast=0;collapsible=1;marginBottom=0;whiteSpace=wrap;html=1;fillColor=#46FF4E;strokeColor=#82b366;" vertex="1" parent="WIyWlLk6GJQsqaUBKTNV-1">
          <mxGeometry x="-784" y="312" width="160" height="286" as="geometry">
            <mxRectangle x="320" y="30" width="70" height="30" as="alternateBounds" />
          </mxGeometry>
        </mxCell>
        <mxCell id="l_mH8X4KawMlUzGO-z-k-5" value="# f_name: string" style="text;strokeColor=none;fillColor=none;align=left;verticalAlign=top;spacingLeft=4;spacingRight=4;overflow=hidden;rotatable=0;points=[[0,0.5],[1,0.5]];portConstraint=eastwest;whiteSpace=wrap;html=1;" vertex="1" parent="l_mH8X4KawMlUzGO-z-k-4">
          <mxGeometry y="26" width="160" height="24" as="geometry" />
        </mxCell>
        <mxCell id="ui3U_AdrFcBO4sHF8EMD-2" value="# l_name: string" style="text;strokeColor=none;fillColor=none;align=left;verticalAlign=top;spacingLeft=4;spacingRight=4;overflow=hidden;rotatable=0;points=[[0,0.5],[1,0.5]];portConstraint=eastwest;whiteSpace=wrap;html=1;" vertex="1" parent="l_mH8X4KawMlUzGO-z-k-4">
          <mxGeometry y="50" width="160" height="30" as="geometry" />
        </mxCell>
        <mxCell id="ui3U_AdrFcBO4sHF8EMD-9" value="&lt;div&gt;# email: string&lt;/div&gt;" style="text;strokeColor=none;fillColor=none;align=left;verticalAlign=top;spacingLeft=4;spacingRight=4;overflow=hidden;rotatable=0;points=[[0,0.5],[1,0.5]];portConstraint=eastwest;whiteSpace=wrap;html=1;" vertex="1" parent="l_mH8X4KawMlUzGO-z-k-4">
          <mxGeometry y="80" width="160" height="30" as="geometry" />
        </mxCell>
        <mxCell id="ui3U_AdrFcBO4sHF8EMD-8" value="&lt;div&gt;&lt;span style=&quot;background-color: transparent; color: light-dark(rgb(0, 0, 0), rgb(255, 255, 255));&quot;&gt;# pwd: string&lt;/span&gt;&lt;/div&gt;" style="text;strokeColor=none;fillColor=none;align=left;verticalAlign=top;spacingLeft=4;spacingRight=4;overflow=hidden;rotatable=0;points=[[0,0.5],[1,0.5]];portConstraint=eastwest;whiteSpace=wrap;html=1;" vertex="1" parent="l_mH8X4KawMlUzGO-z-k-4">
          <mxGeometry y="110" width="160" height="30" as="geometry" />
        </mxCell>
        <mxCell id="ui3U_AdrFcBO4sHF8EMD-11" value="&lt;div&gt;&lt;span style=&quot;background-color: transparent; color: light-dark(rgb(0, 0, 0), rgb(255, 255, 255));&quot;&gt;# telephone: string&lt;/span&gt;&lt;/div&gt;" style="text;strokeColor=none;fillColor=none;align=left;verticalAlign=top;spacingLeft=4;spacingRight=4;overflow=hidden;rotatable=0;points=[[0,0.5],[1,0.5]];portConstraint=eastwest;whiteSpace=wrap;html=1;" vertex="1" parent="l_mH8X4KawMlUzGO-z-k-4">
          <mxGeometry y="140" width="160" height="30" as="geometry" />
        </mxCell>
        <mxCell id="ui3U_AdrFcBO4sHF8EMD-12" value="&lt;div&gt;&lt;span style=&quot;background-color: transparent; color: light-dark(rgb(0, 0, 0), rgb(255, 255, 255));&quot;&gt;# created_at: date&lt;/span&gt;&lt;/div&gt;" style="text;strokeColor=none;fillColor=none;align=left;verticalAlign=top;spacingLeft=4;spacingRight=4;overflow=hidden;rotatable=0;points=[[0,0.5],[1,0.5]];portConstraint=eastwest;whiteSpace=wrap;html=1;" vertex="1" parent="l_mH8X4KawMlUzGO-z-k-4">
          <mxGeometry y="170" width="160" height="30" as="geometry" />
        </mxCell>
        <mxCell id="ui3U_AdrFcBO4sHF8EMD-10" value="&lt;div&gt;&lt;span style=&quot;background-color: transparent; color: light-dark(rgb(0, 0, 0), rgb(255, 255, 255));&quot;&gt;# roles: string&lt;/span&gt;&lt;/div&gt;" style="text;strokeColor=none;fillColor=none;align=left;verticalAlign=top;spacingLeft=4;spacingRight=4;overflow=hidden;rotatable=0;points=[[0,0.5],[1,0.5]];portConstraint=eastwest;whiteSpace=wrap;html=1;" vertex="1" parent="l_mH8X4KawMlUzGO-z-k-4">
          <mxGeometry y="200" width="160" height="30" as="geometry" />
        </mxCell>
        <mxCell id="l_mH8X4KawMlUzGO-z-k-6" value="" style="line;strokeWidth=1;fillColor=none;align=left;verticalAlign=middle;spacingTop=-1;spacingLeft=3;spacingRight=3;rotatable=0;labelPosition=right;points=[];portConstraint=eastwest;strokeColor=inherit;" vertex="1" parent="l_mH8X4KawMlUzGO-z-k-4">
          <mxGeometry y="230" width="160" height="4" as="geometry" />
        </mxCell>
        <mxCell id="l_mH8X4KawMlUzGO-z-k-7" value="&lt;div&gt;+ login()&lt;/div&gt;" style="text;strokeColor=none;fillColor=none;align=left;verticalAlign=top;spacingLeft=4;spacingRight=4;overflow=hidden;rotatable=0;points=[[0,0.5],[1,0.5]];portConstraint=eastwest;whiteSpace=wrap;html=1;" vertex="1" parent="l_mH8X4KawMlUzGO-z-k-4">
          <mxGeometry y="234" width="160" height="22" as="geometry" />
        </mxCell>
        <mxCell id="ui3U_AdrFcBO4sHF8EMD-13" value="+ register()" style="text;strokeColor=none;fillColor=none;align=left;verticalAlign=top;spacingLeft=4;spacingRight=4;overflow=hidden;rotatable=0;points=[[0,0.5],[1,0.5]];portConstraint=eastwest;whiteSpace=wrap;html=1;" vertex="1" parent="l_mH8X4KawMlUzGO-z-k-4">
          <mxGeometry y="256" width="160" height="30" as="geometry" />
        </mxCell>
        <mxCell id="l_mH8X4KawMlUzGO-z-k-37" style="edgeStyle=orthogonalEdgeStyle;rounded=0;orthogonalLoop=1;jettySize=auto;html=1;endArrow=block;endFill=0;jumpSize=8;entryX=1.002;entryY=0.144;entryDx=0;entryDy=0;entryPerimeter=0;" edge="1" parent="WIyWlLk6GJQsqaUBKTNV-1" target="ui3U_AdrFcBO4sHF8EMD-8">
          <mxGeometry relative="1" as="geometry">
            <mxPoint x="-606" y="430" as="targetPoint" />
            <Array as="points">
              <mxPoint x="-391" y="440" />
              <mxPoint x="-606" y="440" />
              <mxPoint x="-606" y="426" />
            </Array>
            <mxPoint x="-391.0040119760479" y="500" as="sourcePoint" />
          </mxGeometry>
        </mxCell>
        <mxCell id="l_mH8X4KawMlUzGO-z-k-8" value="Teacher" style="swimlane;fontStyle=1;align=center;verticalAlign=top;childLayout=stackLayout;horizontal=1;startSize=26;horizontalStack=0;resizeParent=1;resizeParentMax=0;resizeLast=0;collapsible=1;marginBottom=0;whiteSpace=wrap;html=1;fillColor=#F87BFF;strokeColor=#9673a6;" vertex="1" parent="WIyWlLk6GJQsqaUBKTNV-1">
          <mxGeometry x="-494" y="500" width="160" height="82" as="geometry">
            <mxRectangle x="580" y="70" width="70" height="30" as="alternateBounds" />
          </mxGeometry>
        </mxCell>
        <mxCell id="l_mH8X4KawMlUzGO-z-k-9" value="- teacher_id: int" style="text;strokeColor=none;fillColor=none;align=left;verticalAlign=top;spacingLeft=4;spacingRight=4;overflow=hidden;rotatable=0;points=[[0,0.5],[1,0.5]];portConstraint=eastwest;whiteSpace=wrap;html=1;" vertex="1" parent="l_mH8X4KawMlUzGO-z-k-8">
          <mxGeometry y="26" width="160" height="26" as="geometry" />
        </mxCell>
        <mxCell id="l_mH8X4KawMlUzGO-z-k-10" value="" style="line;strokeWidth=1;fillColor=none;align=left;verticalAlign=middle;spacingTop=-1;spacingLeft=3;spacingRight=3;rotatable=0;labelPosition=right;points=[];portConstraint=eastwest;strokeColor=inherit;" vertex="1" parent="l_mH8X4KawMlUzGO-z-k-8">
          <mxGeometry y="52" width="160" height="4" as="geometry" />
        </mxCell>
        <mxCell id="l_mH8X4KawMlUzGO-z-k-11" value="+ displayDocuments()" style="text;strokeColor=none;fillColor=none;align=left;verticalAlign=top;spacingLeft=4;spacingRight=4;overflow=hidden;rotatable=0;points=[[0,0.5],[1,0.5]];portConstraint=eastwest;whiteSpace=wrap;html=1;" vertex="1" parent="l_mH8X4KawMlUzGO-z-k-8">
          <mxGeometry y="56" width="160" height="26" as="geometry" />
        </mxCell>
        <mxCell id="l_mH8X4KawMlUzGO-z-k-12" value="Student" style="swimlane;fontStyle=1;align=center;verticalAlign=top;childLayout=stackLayout;horizontal=1;startSize=26;horizontalStack=0;resizeParent=1;resizeParentMax=0;resizeLast=0;collapsible=1;marginBottom=0;whiteSpace=wrap;html=1;fillColor=#F87BFF;strokeColor=#9673a6;" vertex="1" parent="WIyWlLk6GJQsqaUBKTNV-1">
          <mxGeometry x="-784" y="750" width="160" height="106" as="geometry">
            <mxRectangle x="670" y="200" width="70" height="30" as="alternateBounds" />
          </mxGeometry>
        </mxCell>
        <mxCell id="l_mH8X4KawMlUzGO-z-k-13" value="# birthday: date" style="text;strokeColor=none;fillColor=none;align=left;verticalAlign=top;spacingLeft=4;spacingRight=4;overflow=hidden;rotatable=0;points=[[0,0.5],[1,0.5]];portConstraint=eastwest;whiteSpace=wrap;html=1;" vertex="1" parent="l_mH8X4KawMlUzGO-z-k-12">
          <mxGeometry y="26" width="160" height="25" as="geometry" />
        </mxCell>
        <mxCell id="Yjmmr0oVw0jeOqbne9gF-8" value="&lt;div&gt;# level: string&lt;/div&gt;" style="text;strokeColor=none;fillColor=none;align=left;verticalAlign=top;spacingLeft=4;spacingRight=4;overflow=hidden;rotatable=0;points=[[0,0.5],[1,0.5]];portConstraint=eastwest;whiteSpace=wrap;html=1;" vertex="1" parent="l_mH8X4KawMlUzGO-z-k-12">
          <mxGeometry y="51" width="160" height="25" as="geometry" />
        </mxCell>
        <mxCell id="l_mH8X4KawMlUzGO-z-k-14" value="" style="line;strokeWidth=1;fillColor=none;align=left;verticalAlign=middle;spacingTop=-1;spacingLeft=3;spacingRight=3;rotatable=0;labelPosition=right;points=[];portConstraint=eastwest;strokeColor=inherit;" vertex="1" parent="l_mH8X4KawMlUzGO-z-k-12">
          <mxGeometry y="76" width="160" height="4" as="geometry" />
        </mxCell>
        <mxCell id="l_mH8X4KawMlUzGO-z-k-15" value="+ displayNote()" style="text;strokeColor=none;fillColor=none;align=left;verticalAlign=top;spacingLeft=4;spacingRight=4;overflow=hidden;rotatable=0;points=[[0,0.5],[1,0.5]];portConstraint=eastwest;whiteSpace=wrap;html=1;" vertex="1" parent="l_mH8X4KawMlUzGO-z-k-12">
          <mxGeometry y="80" width="160" height="26" as="geometry" />
        </mxCell>
        <mxCell id="l_mH8X4KawMlUzGO-z-k-16" value="Admin" style="swimlane;fontStyle=1;align=center;verticalAlign=top;childLayout=stackLayout;horizontal=1;startSize=26;horizontalStack=0;resizeParent=1;resizeParentMax=0;resizeLast=0;collapsible=1;marginBottom=0;whiteSpace=wrap;html=1;fillColor=#F87BFF;strokeColor=#9673a6;" vertex="1" parent="WIyWlLk6GJQsqaUBKTNV-1">
          <mxGeometry x="-494" y="120" width="160" height="100" as="geometry">
            <mxRectangle x="240" y="190" width="70" height="30" as="alternateBounds" />
          </mxGeometry>
        </mxCell>
        <mxCell id="l_mH8X4KawMlUzGO-z-k-17" value="- admin_id: int" style="text;strokeColor=none;fillColor=none;align=left;verticalAlign=top;spacingLeft=4;spacingRight=4;overflow=hidden;rotatable=0;points=[[0,0.5],[1,0.5]];portConstraint=eastwest;whiteSpace=wrap;html=1;" vertex="1" parent="l_mH8X4KawMlUzGO-z-k-16">
          <mxGeometry y="26" width="160" height="26" as="geometry" />
        </mxCell>
        <mxCell id="l_mH8X4KawMlUzGO-z-k-18" value="" style="line;strokeWidth=1;fillColor=none;align=left;verticalAlign=middle;spacingTop=-1;spacingLeft=3;spacingRight=3;rotatable=0;labelPosition=right;points=[];portConstraint=eastwest;strokeColor=inherit;" vertex="1" parent="l_mH8X4KawMlUzGO-z-k-16">
          <mxGeometry y="52" width="160" height="8" as="geometry" />
        </mxCell>
        <mxCell id="l_mH8X4KawMlUzGO-z-k-19" value="+&amp;nbsp;assignClasses()&lt;div&gt;+&amp;nbsp;assignGuards()&lt;/div&gt;" style="text;strokeColor=none;fillColor=none;align=left;verticalAlign=top;spacingLeft=4;spacingRight=4;overflow=hidden;rotatable=0;points=[[0,0.5],[1,0.5]];portConstraint=eastwest;whiteSpace=wrap;html=1;" vertex="1" parent="l_mH8X4KawMlUzGO-z-k-16">
          <mxGeometry y="60" width="160" height="40" as="geometry" />
        </mxCell>
        <mxCell id="l_mH8X4KawMlUzGO-z-k-40" style="edgeStyle=orthogonalEdgeStyle;rounded=0;orthogonalLoop=1;jettySize=auto;html=1;exitX=0.006;exitY=0.885;exitDx=0;exitDy=0;exitPerimeter=0;endArrow=block;endFill=0;jumpSize=8;" edge="1" parent="WIyWlLk6GJQsqaUBKTNV-1" source="l_mH8X4KawMlUzGO-z-k-21">
          <mxGeometry relative="1" as="geometry">
            <mxPoint x="-624" y="358" as="targetPoint" />
            <Array as="points">
              <mxPoint x="-534" y="314" />
              <mxPoint x="-534" y="358" />
            </Array>
          </mxGeometry>
        </mxCell>
        <mxCell id="l_mH8X4KawMlUzGO-z-k-20" value="Secretary" style="swimlane;fontStyle=1;align=center;verticalAlign=top;childLayout=stackLayout;horizontal=1;startSize=30;horizontalStack=0;resizeParent=1;resizeParentMax=0;resizeLast=0;collapsible=1;marginBottom=0;whiteSpace=wrap;html=1;fillColor=#F87BFF;strokeColor=#9673a6;" vertex="1" parent="WIyWlLk6GJQsqaUBKTNV-1">
          <mxGeometry x="-494" y="261" width="160" height="86" as="geometry">
            <mxRectangle x="60" y="370" width="70" height="30" as="alternateBounds" />
          </mxGeometry>
        </mxCell>
        <mxCell id="l_mH8X4KawMlUzGO-z-k-21" value="- secretary_id:int" style="text;strokeColor=none;fillColor=none;align=left;verticalAlign=top;spacingLeft=4;spacingRight=4;overflow=hidden;rotatable=0;points=[[0,0.5],[1,0.5]];portConstraint=eastwest;whiteSpace=wrap;html=1;" vertex="1" parent="l_mH8X4KawMlUzGO-z-k-20">
          <mxGeometry y="30" width="160" height="26" as="geometry" />
        </mxCell>
        <mxCell id="l_mH8X4KawMlUzGO-z-k-22" value="" style="line;strokeWidth=1;fillColor=none;align=left;verticalAlign=middle;spacingTop=-1;spacingLeft=3;spacingRight=3;rotatable=0;labelPosition=right;points=[];portConstraint=eastwest;strokeColor=inherit;" vertex="1" parent="l_mH8X4KawMlUzGO-z-k-20">
          <mxGeometry y="56" width="160" height="4" as="geometry" />
        </mxCell>
        <mxCell id="l_mH8X4KawMlUzGO-z-k-23" value="+&amp;nbsp;printDocuments()" style="text;strokeColor=none;fillColor=none;align=left;verticalAlign=top;spacingLeft=4;spacingRight=4;overflow=hidden;rotatable=0;points=[[0,0.5],[1,0.5]];portConstraint=eastwest;whiteSpace=wrap;html=1;" vertex="1" parent="l_mH8X4KawMlUzGO-z-k-20">
          <mxGeometry y="60" width="160" height="26" as="geometry" />
        </mxCell>
        <mxCell id="l_mH8X4KawMlUzGO-z-k-55" style="edgeStyle=orthogonalEdgeStyle;rounded=0;orthogonalLoop=1;jettySize=auto;html=1;endArrow=block;endFill=0;jumpSize=8;exitX=0.003;exitY=0.81;exitDx=0;exitDy=0;exitPerimeter=0;" edge="1" parent="WIyWlLk6GJQsqaUBKTNV-1" source="l_mH8X4KawMlUzGO-z-k-25">
          <mxGeometry relative="1" as="geometry">
            <Array as="points">
              <mxPoint x="-346" y="430" />
              <mxPoint x="-346" y="395" />
            </Array>
            <mxPoint x="-624" y="395" as="targetPoint" />
          </mxGeometry>
        </mxCell>
        <mxCell id="l_mH8X4KawMlUzGO-z-k-24" value="accountant" style="swimlane;fontStyle=1;align=center;verticalAlign=top;childLayout=stackLayout;horizontal=1;startSize=30;horizontalStack=0;resizeParent=1;resizeParentMax=0;resizeLast=0;collapsible=1;marginBottom=0;whiteSpace=wrap;html=1;fillColor=#F87BFF;strokeColor=#9673a6;" vertex="1" parent="WIyWlLk6GJQsqaUBKTNV-1">
          <mxGeometry x="-274" y="379" width="160" height="114" as="geometry">
            <mxRectangle x="200" y="240" width="70" height="30" as="alternateBounds" />
          </mxGeometry>
        </mxCell>
        <mxCell id="l_mH8X4KawMlUzGO-z-k-25" value="- accountant_id: int" style="text;strokeColor=none;fillColor=none;align=left;verticalAlign=top;spacingLeft=4;spacingRight=4;overflow=hidden;rotatable=0;points=[[0,0.5],[1,0.5]];portConstraint=eastwest;whiteSpace=wrap;html=1;" vertex="1" parent="l_mH8X4KawMlUzGO-z-k-24">
          <mxGeometry y="30" width="160" height="26" as="geometry" />
        </mxCell>
        <mxCell id="l_mH8X4KawMlUzGO-z-k-26" value="" style="line;strokeWidth=1;fillColor=none;align=left;verticalAlign=middle;spacingTop=-1;spacingLeft=3;spacingRight=3;rotatable=0;labelPosition=right;points=[];portConstraint=eastwest;strokeColor=inherit;" vertex="1" parent="l_mH8X4KawMlUzGO-z-k-24">
          <mxGeometry y="56" width="160" height="4" as="geometry" />
        </mxCell>
        <mxCell id="l_mH8X4KawMlUzGO-z-k-27" value="+ addOperation()" style="text;strokeColor=none;fillColor=none;align=left;verticalAlign=top;spacingLeft=4;spacingRight=4;overflow=hidden;rotatable=0;points=[[0,0.5],[1,0.5]];portConstraint=eastwest;whiteSpace=wrap;html=1;" vertex="1" parent="l_mH8X4KawMlUzGO-z-k-24">
          <mxGeometry y="60" width="160" height="27" as="geometry" />
        </mxCell>
        <mxCell id="Yjmmr0oVw0jeOqbne9gF-6" value="&lt;div&gt;+ displayAllOperation()&lt;/div&gt;" style="text;strokeColor=none;fillColor=none;align=left;verticalAlign=top;spacingLeft=4;spacingRight=4;overflow=hidden;rotatable=0;points=[[0,0.5],[1,0.5]];portConstraint=eastwest;whiteSpace=wrap;html=1;" vertex="1" parent="l_mH8X4KawMlUzGO-z-k-24">
          <mxGeometry y="87" width="160" height="27" as="geometry" />
        </mxCell>
        <mxCell id="l_mH8X4KawMlUzGO-z-k-58" style="edgeStyle=orthogonalEdgeStyle;rounded=0;orthogonalLoop=1;jettySize=auto;html=1;endArrow=block;endFill=0;jumpSize=8;entryX=0.467;entryY=1.022;entryDx=0;entryDy=0;entryPerimeter=0;" edge="1" parent="WIyWlLk6GJQsqaUBKTNV-1" source="l_mH8X4KawMlUzGO-z-k-28" target="ui3U_AdrFcBO4sHF8EMD-13">
          <mxGeometry relative="1" as="geometry">
            <Array as="points">
              <mxPoint x="-709" y="630" />
              <mxPoint x="-709" y="630" />
            </Array>
            <mxPoint x="-709" y="650" as="sourcePoint" />
            <mxPoint x="-726" y="630" as="targetPoint" />
          </mxGeometry>
        </mxCell>
        <mxCell id="l_mH8X4KawMlUzGO-z-k-28" value="Parent" style="swimlane;fontStyle=1;align=center;verticalAlign=top;childLayout=stackLayout;horizontal=1;startSize=26;horizontalStack=0;resizeParent=1;resizeParentMax=0;resizeLast=0;collapsible=1;marginBottom=0;whiteSpace=wrap;html=1;fillColor=#F87BFF;strokeColor=#9673a6;" vertex="1" parent="WIyWlLk6GJQsqaUBKTNV-1">
          <mxGeometry x="-784" y="656" width="160" height="82" as="geometry">
            <mxRectangle x="370" y="160" width="70" height="30" as="alternateBounds" />
          </mxGeometry>
        </mxCell>
        <mxCell id="l_mH8X4KawMlUzGO-z-k-29" value="- adress: string" style="text;strokeColor=none;fillColor=none;align=left;verticalAlign=top;spacingLeft=4;spacingRight=4;overflow=hidden;rotatable=0;points=[[0,0.5],[1,0.5]];portConstraint=eastwest;whiteSpace=wrap;html=1;" vertex="1" parent="l_mH8X4KawMlUzGO-z-k-28">
          <mxGeometry y="26" width="160" height="26" as="geometry" />
        </mxCell>
        <mxCell id="l_mH8X4KawMlUzGO-z-k-30" value="" style="line;strokeWidth=1;fillColor=none;align=left;verticalAlign=middle;spacingTop=-1;spacingLeft=3;spacingRight=3;rotatable=0;labelPosition=right;points=[];portConstraint=eastwest;strokeColor=inherit;" vertex="1" parent="l_mH8X4KawMlUzGO-z-k-28">
          <mxGeometry y="52" width="160" height="4" as="geometry" />
        </mxCell>
        <mxCell id="l_mH8X4KawMlUzGO-z-k-31" value="+&amp;nbsp;registerNewChild()" style="text;strokeColor=none;fillColor=none;align=left;verticalAlign=top;spacingLeft=4;spacingRight=4;overflow=hidden;rotatable=0;points=[[0,0.5],[1,0.5]];portConstraint=eastwest;whiteSpace=wrap;html=1;" vertex="1" parent="l_mH8X4KawMlUzGO-z-k-28">
          <mxGeometry y="56" width="160" height="26" as="geometry" />
        </mxCell>
        <mxCell id="l_mH8X4KawMlUzGO-z-k-60" style="edgeStyle=orthogonalEdgeStyle;rounded=0;orthogonalLoop=1;jettySize=auto;html=1;endArrow=diamond;endFill=1;entryX=1.001;entryY=0.142;entryDx=0;entryDy=0;entryPerimeter=0;exitX=0.5;exitY=0;exitDx=0;exitDy=0;" edge="1" parent="WIyWlLk6GJQsqaUBKTNV-1" source="l_mH8X4KawMlUzGO-z-k-45" target="l_mH8X4KawMlUzGO-z-k-9">
          <mxGeometry relative="1" as="geometry">
            <mxPoint x="-144.15999999999988" y="586" as="sourcePoint" />
            <mxPoint x="-324.00000000000006" y="528.994" as="targetPoint" />
            <Array as="points">
              <mxPoint x="-126" y="530" />
            </Array>
          </mxGeometry>
        </mxCell>
        <mxCell id="l_mH8X4KawMlUzGO-z-k-45" value="Grade" style="swimlane;fontStyle=1;align=center;verticalAlign=top;childLayout=stackLayout;horizontal=1;startSize=26;horizontalStack=0;resizeParent=1;resizeParentMax=0;resizeLast=0;collapsible=1;marginBottom=0;whiteSpace=wrap;html=1;fillColor=#F7FFAA;strokeColor=#d6b656;" vertex="1" parent="WIyWlLk6GJQsqaUBKTNV-1">
          <mxGeometry x="-206" y="557" width="160" height="108" as="geometry">
            <mxRectangle x="670" y="200" width="70" height="30" as="alternateBounds" />
          </mxGeometry>
        </mxCell>
        <mxCell id="l_mH8X4KawMlUzGO-z-k-46" value="- grade: double" style="text;strokeColor=none;fillColor=none;align=left;verticalAlign=top;spacingLeft=4;spacingRight=4;overflow=hidden;rotatable=0;points=[[0,0.5],[1,0.5]];portConstraint=eastwest;whiteSpace=wrap;html=1;" vertex="1" parent="l_mH8X4KawMlUzGO-z-k-45">
          <mxGeometry y="26" width="160" height="24" as="geometry" />
        </mxCell>
        <mxCell id="l_mH8X4KawMlUzGO-z-k-47" value="" style="line;strokeWidth=1;fillColor=none;align=left;verticalAlign=middle;spacingTop=-1;spacingLeft=3;spacingRight=3;rotatable=0;labelPosition=right;points=[];portConstraint=eastwest;strokeColor=inherit;" vertex="1" parent="l_mH8X4KawMlUzGO-z-k-45">
          <mxGeometry y="50" width="160" height="4" as="geometry" />
        </mxCell>
        <mxCell id="l_mH8X4KawMlUzGO-z-k-48" value="&lt;span style=&quot;text-wrap-mode: nowrap; background-color: rgb(255, 255, 255);&quot;&gt;+ displayGrads()&lt;/span&gt;" style="text;strokeColor=none;fillColor=none;align=left;verticalAlign=top;spacingLeft=4;spacingRight=4;overflow=hidden;rotatable=0;points=[[0,0.5],[1,0.5]];portConstraint=eastwest;whiteSpace=wrap;html=1;" vertex="1" parent="l_mH8X4KawMlUzGO-z-k-45">
          <mxGeometry y="54" width="160" height="27" as="geometry" />
        </mxCell>
        <mxCell id="Yjmmr0oVw0jeOqbne9gF-7" value="&lt;div&gt;&lt;span style=&quot;text-wrap-mode: nowrap; background-color: rgb(255, 255, 255);&quot;&gt;+ addGrad()&lt;/span&gt;&lt;/div&gt;" style="text;strokeColor=none;fillColor=none;align=left;verticalAlign=top;spacingLeft=4;spacingRight=4;overflow=hidden;rotatable=0;points=[[0,0.5],[1,0.5]];portConstraint=eastwest;whiteSpace=wrap;html=1;" vertex="1" parent="l_mH8X4KawMlUzGO-z-k-45">
          <mxGeometry y="81" width="160" height="27" as="geometry" />
        </mxCell>
        <mxCell id="l_mH8X4KawMlUzGO-z-k-49" value="Activities" style="swimlane;fontStyle=1;align=center;verticalAlign=top;childLayout=stackLayout;horizontal=1;startSize=26;horizontalStack=0;resizeParent=1;resizeParentMax=0;resizeLast=0;collapsible=1;marginBottom=0;whiteSpace=wrap;html=1;fillColor=#F7FFAA;strokeColor=#d6b656;" vertex="1" parent="WIyWlLk6GJQsqaUBKTNV-1">
          <mxGeometry x="-334" y="750" width="160" height="153" as="geometry">
            <mxRectangle x="670" y="200" width="70" height="30" as="alternateBounds" />
          </mxGeometry>
        </mxCell>
        <mxCell id="l_mH8X4KawMlUzGO-z-k-50" value="- title: string" style="text;strokeColor=none;fillColor=none;align=left;verticalAlign=top;spacingLeft=4;spacingRight=4;overflow=hidden;rotatable=0;points=[[0,0.5],[1,0.5]];portConstraint=eastwest;whiteSpace=wrap;html=1;" vertex="1" parent="l_mH8X4KawMlUzGO-z-k-49">
          <mxGeometry y="26" width="160" height="24" as="geometry" />
        </mxCell>
        <mxCell id="ui3U_AdrFcBO4sHF8EMD-0" value="- type: string" style="text;strokeColor=none;fillColor=none;align=left;verticalAlign=top;spacingLeft=4;spacingRight=4;overflow=hidden;rotatable=0;points=[[0,0.5],[1,0.5]];portConstraint=eastwest;whiteSpace=wrap;html=1;" vertex="1" parent="l_mH8X4KawMlUzGO-z-k-49">
          <mxGeometry y="50" width="160" height="24" as="geometry" />
        </mxCell>
        <mxCell id="x5WPUFtIR_pD6KWoWvyF-1" value="- discription: string" style="text;strokeColor=none;fillColor=none;align=left;verticalAlign=top;spacingLeft=4;spacingRight=4;overflow=hidden;rotatable=0;points=[[0,0.5],[1,0.5]];portConstraint=eastwest;whiteSpace=wrap;html=1;" vertex="1" parent="l_mH8X4KawMlUzGO-z-k-49">
          <mxGeometry y="74" width="160" height="24" as="geometry" />
        </mxCell>
        <mxCell id="x5WPUFtIR_pD6KWoWvyF-0" value="- created_at: date" style="text;strokeColor=none;fillColor=none;align=left;verticalAlign=top;spacingLeft=4;spacingRight=4;overflow=hidden;rotatable=0;points=[[0,0.5],[1,0.5]];portConstraint=eastwest;whiteSpace=wrap;html=1;" vertex="1" parent="l_mH8X4KawMlUzGO-z-k-49">
          <mxGeometry y="98" width="160" height="24" as="geometry" />
        </mxCell>
        <mxCell id="l_mH8X4KawMlUzGO-z-k-51" value="" style="line;strokeWidth=1;fillColor=none;align=left;verticalAlign=middle;spacingTop=-1;spacingLeft=3;spacingRight=3;rotatable=0;labelPosition=right;points=[];portConstraint=eastwest;strokeColor=inherit;" vertex="1" parent="l_mH8X4KawMlUzGO-z-k-49">
          <mxGeometry y="122" width="160" height="4" as="geometry" />
        </mxCell>
        <mxCell id="l_mH8X4KawMlUzGO-z-k-52" value="&lt;div&gt;&lt;span style=&quot;text-wrap-mode: nowrap; background-color: rgb(255, 255, 255);&quot;&gt;+ addActivity()&lt;/span&gt;&lt;/div&gt;" style="text;strokeColor=none;fillColor=none;align=left;verticalAlign=top;spacingLeft=4;spacingRight=4;overflow=hidden;rotatable=0;points=[[0,0.5],[1,0.5]];portConstraint=eastwest;whiteSpace=wrap;html=1;" vertex="1" parent="l_mH8X4KawMlUzGO-z-k-49">
          <mxGeometry y="126" width="160" height="27" as="geometry" />
        </mxCell>
        <mxCell id="l_mH8X4KawMlUzGO-z-k-56" style="edgeStyle=orthogonalEdgeStyle;rounded=0;orthogonalLoop=1;jettySize=auto;html=1;entryX=0.5;entryY=0;entryDx=0;entryDy=0;endArrow=block;endFill=0;jumpSize=8;" edge="1" parent="WIyWlLk6GJQsqaUBKTNV-1" source="l_mH8X4KawMlUzGO-z-k-17" target="l_mH8X4KawMlUzGO-z-k-4">
          <mxGeometry relative="1" as="geometry" />
        </mxCell>
        <mxCell id="l_mH8X4KawMlUzGO-z-k-59" style="edgeStyle=orthogonalEdgeStyle;rounded=0;orthogonalLoop=1;jettySize=auto;html=1;endArrow=block;endFill=0;jumpSize=8;entryX=1.007;entryY=0.295;entryDx=0;entryDy=0;entryPerimeter=0;" edge="1" parent="WIyWlLk6GJQsqaUBKTNV-1" source="l_mH8X4KawMlUzGO-z-k-13" target="ui3U_AdrFcBO4sHF8EMD-10">
          <mxGeometry relative="1" as="geometry">
            <Array as="points">
              <mxPoint x="-584" y="797" />
              <mxPoint x="-584" y="521" />
            </Array>
            <mxPoint x="-590" y="520" as="targetPoint" />
          </mxGeometry>
        </mxCell>
        <mxCell id="l_mH8X4KawMlUzGO-z-k-62" style="edgeStyle=orthogonalEdgeStyle;rounded=0;orthogonalLoop=1;jettySize=auto;html=1;entryX=1.001;entryY=0.357;entryDx=0;entryDy=0;entryPerimeter=0;endArrow=diamond;endFill=1;" edge="1" parent="WIyWlLk6GJQsqaUBKTNV-1" source="l_mH8X4KawMlUzGO-z-k-49" target="l_mH8X4KawMlUzGO-z-k-11">
          <mxGeometry relative="1" as="geometry" />
        </mxCell>
        <mxCell id="l_mH8X4KawMlUzGO-z-k-63" value="«interface»&lt;br&gt;&lt;b&gt;displayActivities&lt;/b&gt;" style="html=1;whiteSpace=wrap;" vertex="1" parent="WIyWlLk6GJQsqaUBKTNV-1">
          <mxGeometry x="-564" y="940" width="110" height="50" as="geometry" />
        </mxCell>
        <mxCell id="l_mH8X4KawMlUzGO-z-k-64" value="" style="endArrow=block;dashed=1;endFill=0;endSize=12;html=1;rounded=0;exitX=1;exitY=0.5;exitDx=0;exitDy=0;entryX=0.545;entryY=1.105;entryDx=0;entryDy=0;entryPerimeter=0;edgeStyle=orthogonalEdgeStyle;" edge="1" parent="WIyWlLk6GJQsqaUBKTNV-1" source="l_mH8X4KawMlUzGO-z-k-63" target="l_mH8X4KawMlUzGO-z-k-52">
          <mxGeometry width="160" relative="1" as="geometry">
            <mxPoint x="-394" y="920" as="sourcePoint" />
            <mxPoint x="-234" y="920" as="targetPoint" />
            <Array as="points">
              <mxPoint x="-247" y="965" />
            </Array>
          </mxGeometry>
        </mxCell>
        <mxCell id="l_mH8X4KawMlUzGO-z-k-66" style="edgeStyle=orthogonalEdgeStyle;rounded=0;orthogonalLoop=1;jettySize=auto;html=1;entryX=0.496;entryY=1.038;entryDx=0;entryDy=0;entryPerimeter=0;dashed=1;endArrow=block;endFill=0;endSize=12;" edge="1" parent="WIyWlLk6GJQsqaUBKTNV-1" source="l_mH8X4KawMlUzGO-z-k-63" target="l_mH8X4KawMlUzGO-z-k-15">
          <mxGeometry relative="1" as="geometry">
            <Array as="points">
              <mxPoint x="-705" y="965" />
            </Array>
          </mxGeometry>
        </mxCell>
        <mxCell id="l_mH8X4KawMlUzGO-z-k-69" value="&lt;span style=&quot;&quot;&gt;&lt;font style=&quot;font-size: 7px;&quot;&gt;&lt;b&gt;0..1&lt;/b&gt;&lt;/font&gt;&lt;/span&gt;" style="text;align=center;fontStyle=0;verticalAlign=middle;spacingLeft=3;spacingRight=3;strokeColor=none;rotatable=0;points=[[0,0.5],[1,0.5]];portConstraint=eastwest;html=1;" vertex="1" parent="WIyWlLk6GJQsqaUBKTNV-1">
          <mxGeometry x="-519" y="145" width="20" height="10" as="geometry" />
        </mxCell>
        <mxCell id="l_mH8X4KawMlUzGO-z-k-70" value="&lt;span style=&quot;&quot;&gt;&lt;font style=&quot;font-size: 7px;&quot;&gt;&lt;b&gt;1..1&lt;/b&gt;&lt;/font&gt;&lt;/span&gt;" style="text;align=center;fontStyle=0;verticalAlign=middle;spacingLeft=3;spacingRight=3;strokeColor=none;rotatable=0;points=[[0,0.5],[1,0.5]];portConstraint=eastwest;html=1;" vertex="1" parent="WIyWlLk6GJQsqaUBKTNV-1">
          <mxGeometry x="-728" y="292" width="20" height="10" as="geometry" />
        </mxCell>
        <mxCell id="l_mH8X4KawMlUzGO-z-k-71" value="&lt;span style=&quot;&quot;&gt;&lt;font style=&quot;font-size: 7px;&quot;&gt;&lt;b&gt;0..1&lt;/b&gt;&lt;/font&gt;&lt;/span&gt;" style="text;align=center;fontStyle=0;verticalAlign=middle;spacingLeft=3;spacingRight=3;strokeColor=none;rotatable=0;points=[[0,0.5],[1,0.5]];portConstraint=eastwest;html=1;" vertex="1" parent="WIyWlLk6GJQsqaUBKTNV-1">
          <mxGeometry x="-519" y="292" width="20" height="10" as="geometry" />
        </mxCell>
        <mxCell id="l_mH8X4KawMlUzGO-z-k-72" value="&lt;span style=&quot;&quot;&gt;&lt;font style=&quot;font-size: 7px;&quot;&gt;&lt;b&gt;1..1&lt;/b&gt;&lt;/font&gt;&lt;/span&gt;" style="text;align=center;fontStyle=0;verticalAlign=middle;spacingLeft=3;spacingRight=3;strokeColor=none;rotatable=0;points=[[0,0.5],[1,0.5]];portConstraint=eastwest;html=1;" vertex="1" parent="WIyWlLk6GJQsqaUBKTNV-1">
          <mxGeometry x="-616" y="341" width="20" height="10" as="geometry" />
        </mxCell>
        <mxCell id="l_mH8X4KawMlUzGO-z-k-73" value="&lt;span style=&quot;&quot;&gt;&lt;font style=&quot;font-size: 7px;&quot;&gt;&lt;b&gt;0..1&lt;/b&gt;&lt;/font&gt;&lt;/span&gt;" style="text;align=center;fontStyle=0;verticalAlign=middle;spacingLeft=3;spacingRight=3;strokeColor=none;rotatable=0;points=[[0,0.5],[1,0.5]];portConstraint=eastwest;html=1;" vertex="1" parent="WIyWlLk6GJQsqaUBKTNV-1">
          <mxGeometry x="-301" y="415" width="20" height="10" as="geometry" />
        </mxCell>
        <mxCell id="l_mH8X4KawMlUzGO-z-k-74" value="&lt;span style=&quot;&quot;&gt;&lt;font style=&quot;font-size: 7px;&quot;&gt;&lt;b&gt;1..1&lt;/b&gt;&lt;/font&gt;&lt;/span&gt;" style="text;align=center;fontStyle=0;verticalAlign=middle;spacingLeft=3;spacingRight=3;strokeColor=none;rotatable=0;points=[[0,0.5],[1,0.5]];portConstraint=eastwest;html=1;" vertex="1" parent="WIyWlLk6GJQsqaUBKTNV-1">
          <mxGeometry x="-616" y="379" width="20" height="10" as="geometry" />
        </mxCell>
        <mxCell id="l_mH8X4KawMlUzGO-z-k-75" value="&lt;span style=&quot;&quot;&gt;&lt;font style=&quot;font-size: 7px;&quot;&gt;&lt;b&gt;1..1&lt;/b&gt;&lt;/font&gt;&lt;/span&gt;" style="text;align=center;fontStyle=0;verticalAlign=middle;spacingLeft=3;spacingRight=3;strokeColor=none;rotatable=0;points=[[0,0.5],[1,0.5]];portConstraint=eastwest;html=1;" vertex="1" parent="WIyWlLk6GJQsqaUBKTNV-1">
          <mxGeometry x="-614" y="509" width="20" height="10" as="geometry" />
        </mxCell>
        <mxCell id="l_mH8X4KawMlUzGO-z-k-76" value="&lt;span style=&quot;&quot;&gt;&lt;font style=&quot;font-size: 7px;&quot;&gt;&lt;b&gt;1..1&lt;/b&gt;&lt;/font&gt;&lt;/span&gt;" style="text;align=center;fontStyle=0;verticalAlign=middle;spacingLeft=3;spacingRight=3;strokeColor=none;rotatable=0;points=[[0,0.5],[1,0.5]];portConstraint=eastwest;html=1;" vertex="1" parent="WIyWlLk6GJQsqaUBKTNV-1">
          <mxGeometry x="-605" y="427" width="20" height="10" as="geometry" />
        </mxCell>
        <mxCell id="l_mH8X4KawMlUzGO-z-k-77" value="&lt;span style=&quot;&quot;&gt;&lt;font style=&quot;font-size: 7px;&quot;&gt;&lt;b&gt;0..*&lt;/b&gt;&lt;/font&gt;&lt;/span&gt;" style="text;align=center;fontStyle=0;verticalAlign=middle;spacingLeft=3;spacingRight=3;strokeColor=none;rotatable=0;points=[[0,0.5],[1,0.5]];portConstraint=eastwest;html=1;" vertex="1" parent="WIyWlLk6GJQsqaUBKTNV-1">
          <mxGeometry x="-411" y="486" width="20" height="10" as="geometry" />
        </mxCell>
        <mxCell id="l_mH8X4KawMlUzGO-z-k-78" value="&lt;span style=&quot;&quot;&gt;&lt;font style=&quot;font-size: 7px;&quot;&gt;&lt;b&gt;1..1&lt;/b&gt;&lt;/font&gt;&lt;/span&gt;" style="text;align=center;fontStyle=0;verticalAlign=middle;spacingLeft=3;spacingRight=3;strokeColor=none;rotatable=0;points=[[0,0.5],[1,0.5]];portConstraint=eastwest;html=1;" vertex="1" parent="WIyWlLk6GJQsqaUBKTNV-1">
          <mxGeometry x="-736" y="610" width="20" height="10" as="geometry" />
        </mxCell>
        <mxCell id="l_mH8X4KawMlUzGO-z-k-79" value="&lt;span style=&quot;&quot;&gt;&lt;font style=&quot;font-size: 7px;&quot;&gt;&lt;b&gt;1..*&lt;/b&gt;&lt;/font&gt;&lt;/span&gt;" style="text;align=center;fontStyle=0;verticalAlign=middle;spacingLeft=3;spacingRight=3;strokeColor=none;rotatable=0;points=[[0,0.5],[1,0.5]];portConstraint=eastwest;html=1;" vertex="1" parent="WIyWlLk6GJQsqaUBKTNV-1">
          <mxGeometry x="-736" y="640" width="20" height="10" as="geometry" />
        </mxCell>
        <mxCell id="l_mH8X4KawMlUzGO-z-k-80" value="&lt;span style=&quot;&quot;&gt;&lt;font style=&quot;font-size: 7px;&quot;&gt;&lt;b&gt;1..*&lt;/b&gt;&lt;/font&gt;&lt;/span&gt;" style="text;align=center;fontStyle=0;verticalAlign=middle;spacingLeft=3;spacingRight=3;strokeColor=none;rotatable=0;points=[[0,0.5],[1,0.5]];portConstraint=eastwest;html=1;" vertex="1" parent="WIyWlLk6GJQsqaUBKTNV-1">
          <mxGeometry x="-623" y="785" width="20" height="10" as="geometry" />
        </mxCell>
        <mxCell id="l_mH8X4KawMlUzGO-z-k-81" value="&lt;span style=&quot;&quot;&gt;&lt;font style=&quot;font-size: 7px;&quot;&gt;&lt;b&gt;0..*&lt;/b&gt;&lt;/font&gt;&lt;/span&gt;" style="text;align=center;fontStyle=0;verticalAlign=middle;spacingLeft=3;spacingRight=3;strokeColor=none;rotatable=0;points=[[0,0.5],[1,0.5]];portConstraint=eastwest;html=1;" vertex="1" parent="WIyWlLk6GJQsqaUBKTNV-1">
          <mxGeometry x="-251" y="732" width="20" height="10" as="geometry" />
        </mxCell>
        <mxCell id="l_mH8X4KawMlUzGO-z-k-82" value="&lt;span style=&quot;&quot;&gt;&lt;font style=&quot;font-size: 7px;&quot;&gt;&lt;b&gt;1..1&lt;/b&gt;&lt;/font&gt;&lt;/span&gt;" style="text;align=center;fontStyle=0;verticalAlign=middle;spacingLeft=3;spacingRight=3;strokeColor=none;rotatable=0;points=[[0,0.5],[1,0.5]];portConstraint=eastwest;html=1;" vertex="1" parent="WIyWlLk6GJQsqaUBKTNV-1">
          <mxGeometry x="-326" y="554" width="20" height="10" as="geometry" />
        </mxCell>
        <mxCell id="l_mH8X4KawMlUzGO-z-k-83" value="&lt;span style=&quot;&quot;&gt;&lt;font style=&quot;font-size: 7px;&quot;&gt;&lt;b&gt;1..1&lt;/b&gt;&lt;/font&gt;&lt;/span&gt;" style="text;align=center;fontStyle=0;verticalAlign=middle;spacingLeft=3;spacingRight=3;strokeColor=none;rotatable=0;points=[[0,0.5],[1,0.5]];portConstraint=eastwest;html=1;" vertex="1" parent="WIyWlLk6GJQsqaUBKTNV-1">
          <mxGeometry x="-326" y="516" width="20" height="10" as="geometry" />
        </mxCell>
        <mxCell id="l_mH8X4KawMlUzGO-z-k-84" value="&lt;span style=&quot;&quot;&gt;&lt;font style=&quot;font-size: 7px;&quot;&gt;&lt;b&gt;0..*&lt;/b&gt;&lt;/font&gt;&lt;/span&gt;" style="text;align=center;fontStyle=0;verticalAlign=middle;spacingLeft=3;spacingRight=3;strokeColor=none;rotatable=0;points=[[0,0.5],[1,0.5]];portConstraint=eastwest;html=1;" vertex="1" parent="WIyWlLk6GJQsqaUBKTNV-1">
          <mxGeometry x="-124" y="541" width="20" height="10" as="geometry" />
        </mxCell>
        <mxCell id="x5WPUFtIR_pD6KWoWvyF-2" value="AbsentOrLate" style="swimlane;fontStyle=1;align=center;verticalAlign=top;childLayout=stackLayout;horizontal=1;startSize=26;horizontalStack=0;resizeParent=1;resizeParentMax=0;resizeLast=0;collapsible=1;marginBottom=0;whiteSpace=wrap;html=1;fillColor=#F7FFAA;strokeColor=#d6b656;" vertex="1" parent="WIyWlLk6GJQsqaUBKTNV-1">
          <mxGeometry x="-530" y="690" width="160" height="175" as="geometry">
            <mxRectangle x="670" y="200" width="70" height="30" as="alternateBounds" />
          </mxGeometry>
        </mxCell>
        <mxCell id="x5WPUFtIR_pD6KWoWvyF-4" value="- type: string" style="text;strokeColor=none;fillColor=none;align=left;verticalAlign=top;spacingLeft=4;spacingRight=4;overflow=hidden;rotatable=0;points=[[0,0.5],[1,0.5]];portConstraint=eastwest;whiteSpace=wrap;html=1;" vertex="1" parent="x5WPUFtIR_pD6KWoWvyF-2">
          <mxGeometry y="26" width="160" height="24" as="geometry" />
        </mxCell>
        <mxCell id="x5WPUFtIR_pD6KWoWvyF-5" value="- description: string" style="text;strokeColor=none;fillColor=none;align=left;verticalAlign=top;spacingLeft=4;spacingRight=4;overflow=hidden;rotatable=0;points=[[0,0.5],[1,0.5]];portConstraint=eastwest;whiteSpace=wrap;html=1;" vertex="1" parent="x5WPUFtIR_pD6KWoWvyF-2">
          <mxGeometry y="50" width="160" height="24" as="geometry" />
        </mxCell>
        <mxCell id="x5WPUFtIR_pD6KWoWvyF-10" value="- isJustify: bool" style="text;strokeColor=none;fillColor=none;align=left;verticalAlign=top;spacingLeft=4;spacingRight=4;overflow=hidden;rotatable=0;points=[[0,0.5],[1,0.5]];portConstraint=eastwest;whiteSpace=wrap;html=1;" vertex="1" parent="x5WPUFtIR_pD6KWoWvyF-2">
          <mxGeometry y="74" width="160" height="24" as="geometry" />
        </mxCell>
        <mxCell id="x5WPUFtIR_pD6KWoWvyF-6" value="- created_at: date" style="text;strokeColor=none;fillColor=none;align=left;verticalAlign=top;spacingLeft=4;spacingRight=4;overflow=hidden;rotatable=0;points=[[0,0.5],[1,0.5]];portConstraint=eastwest;whiteSpace=wrap;html=1;" vertex="1" parent="x5WPUFtIR_pD6KWoWvyF-2">
          <mxGeometry y="98" width="160" height="24" as="geometry" />
        </mxCell>
        <mxCell id="x5WPUFtIR_pD6KWoWvyF-7" value="" style="line;strokeWidth=1;fillColor=none;align=left;verticalAlign=middle;spacingTop=-1;spacingLeft=3;spacingRight=3;rotatable=0;labelPosition=right;points=[];portConstraint=eastwest;strokeColor=inherit;" vertex="1" parent="x5WPUFtIR_pD6KWoWvyF-2">
          <mxGeometry y="122" width="160" height="4" as="geometry" />
        </mxCell>
        <mxCell id="x5WPUFtIR_pD6KWoWvyF-8" value="&lt;div&gt;&lt;span style=&quot;text-wrap-mode: nowrap; background-color: rgb(255, 255, 255);&quot;&gt;+ addAbsent()&lt;/span&gt;&lt;/div&gt;" style="text;strokeColor=none;fillColor=none;align=left;verticalAlign=top;spacingLeft=4;spacingRight=4;overflow=hidden;rotatable=0;points=[[0,0.5],[1,0.5]];portConstraint=eastwest;whiteSpace=wrap;html=1;" vertex="1" parent="x5WPUFtIR_pD6KWoWvyF-2">
          <mxGeometry y="126" width="160" height="24" as="geometry" />
        </mxCell>
        <mxCell id="x5WPUFtIR_pD6KWoWvyF-9" value="&lt;div&gt;&lt;span style=&quot;text-wrap-mode: nowrap; background-color: rgb(255, 255, 255);&quot;&gt;+ addLate()&lt;/span&gt;&lt;/div&gt;" style="text;strokeColor=none;fillColor=none;align=left;verticalAlign=top;spacingLeft=4;spacingRight=4;overflow=hidden;rotatable=0;points=[[0,0.5],[1,0.5]];portConstraint=eastwest;whiteSpace=wrap;html=1;" vertex="1" parent="x5WPUFtIR_pD6KWoWvyF-2">
          <mxGeometry y="150" width="160" height="25" as="geometry" />
        </mxCell>
        <mxCell id="x5WPUFtIR_pD6KWoWvyF-11" style="edgeStyle=orthogonalEdgeStyle;rounded=0;orthogonalLoop=1;jettySize=auto;html=1;endArrow=diamond;endFill=1;entryX=1;entryY=0.75;entryDx=0;entryDy=0;" edge="1" parent="WIyWlLk6GJQsqaUBKTNV-1" source="x5WPUFtIR_pD6KWoWvyF-2" target="l_mH8X4KawMlUzGO-z-k-12">
          <mxGeometry relative="1" as="geometry">
            <Array as="points">
              <mxPoint x="-550" y="778" />
              <mxPoint x="-550" y="830" />
            </Array>
            <mxPoint x="-600" y="840" as="targetPoint" />
          </mxGeometry>
        </mxCell>
        <mxCell id="x5WPUFtIR_pD6KWoWvyF-13" value="&lt;span style=&quot;&quot;&gt;&lt;font style=&quot;font-size: 7px;&quot;&gt;&lt;b&gt;0..*&lt;/b&gt;&lt;/font&gt;&lt;/span&gt;" style="text;align=center;fontStyle=0;verticalAlign=middle;spacingLeft=3;spacingRight=3;strokeColor=none;rotatable=0;points=[[0,0.5],[1,0.5]];portConstraint=eastwest;html=1;" vertex="1" parent="WIyWlLk6GJQsqaUBKTNV-1">
          <mxGeometry x="-550" y="766" width="20" height="10" as="geometry" />
        </mxCell>
        <mxCell id="x5WPUFtIR_pD6KWoWvyF-14" value="&lt;span style=&quot;&quot;&gt;&lt;font style=&quot;font-size: 7px;&quot;&gt;&lt;b&gt;1..*&lt;/b&gt;&lt;/font&gt;&lt;/span&gt;" style="text;align=center;fontStyle=0;verticalAlign=middle;spacingLeft=3;spacingRight=3;strokeColor=none;rotatable=0;points=[[0,0.5],[1,0.5]];portConstraint=eastwest;html=1;" vertex="1" parent="WIyWlLk6GJQsqaUBKTNV-1">
          <mxGeometry x="-620" y="817" width="20" height="10" as="geometry" />
        </mxCell>
        <mxCell id="x5WPUFtIR_pD6KWoWvyF-15" style="edgeStyle=orthogonalEdgeStyle;rounded=0;orthogonalLoop=1;jettySize=auto;html=1;entryX=0.504;entryY=1.016;entryDx=0;entryDy=0;entryPerimeter=0;endArrow=diamond;endFill=0;" edge="1" parent="WIyWlLk6GJQsqaUBKTNV-1" source="x5WPUFtIR_pD6KWoWvyF-2" target="l_mH8X4KawMlUzGO-z-k-11">
          <mxGeometry relative="1" as="geometry" />
        </mxCell>
        <mxCell id="Yjmmr0oVw0jeOqbne9gF-10" style="edgeStyle=orthogonalEdgeStyle;rounded=0;orthogonalLoop=1;jettySize=auto;html=1;entryX=0.5;entryY=0;entryDx=0;entryDy=0;endArrow=diamond;endFill=1;" edge="1" parent="WIyWlLk6GJQsqaUBKTNV-1" source="Yjmmr0oVw0jeOqbne9gF-0" target="l_mH8X4KawMlUzGO-z-k-24">
          <mxGeometry relative="1" as="geometry" />
        </mxCell>
        <mxCell id="Yjmmr0oVw0jeOqbne9gF-0" value="CPC" style="swimlane;fontStyle=1;align=center;verticalAlign=top;childLayout=stackLayout;horizontal=1;startSize=26;horizontalStack=0;resizeParent=1;resizeParentMax=0;resizeLast=0;collapsible=1;marginBottom=0;whiteSpace=wrap;html=1;fillColor=#F7FFAA;strokeColor=#d6b656;" vertex="1" parent="WIyWlLk6GJQsqaUBKTNV-1">
          <mxGeometry x="-206" y="130" width="160" height="130" as="geometry">
            <mxRectangle x="670" y="200" width="70" height="30" as="alternateBounds" />
          </mxGeometry>
        </mxCell>
        <mxCell id="Yjmmr0oVw0jeOqbne9gF-1" value="- amount: double" style="text;strokeColor=none;fillColor=none;align=left;verticalAlign=top;spacingLeft=4;spacingRight=4;overflow=hidden;rotatable=0;points=[[0,0.5],[1,0.5]];portConstraint=eastwest;whiteSpace=wrap;html=1;" vertex="1" parent="Yjmmr0oVw0jeOqbne9gF-0">
          <mxGeometry y="26" width="160" height="24" as="geometry" />
        </mxCell>
        <mxCell id="Yjmmr0oVw0jeOqbne9gF-4" value="- type: string" style="text;strokeColor=none;fillColor=none;align=left;verticalAlign=top;spacingLeft=4;spacingRight=4;overflow=hidden;rotatable=0;points=[[0,0.5],[1,0.5]];portConstraint=eastwest;whiteSpace=wrap;html=1;" vertex="1" parent="Yjmmr0oVw0jeOqbne9gF-0">
          <mxGeometry y="50" width="160" height="24" as="geometry" />
        </mxCell>
        <mxCell id="Yjmmr0oVw0jeOqbne9gF-5" value="- invoce_id: int" style="text;strokeColor=none;fillColor=none;align=left;verticalAlign=top;spacingLeft=4;spacingRight=4;overflow=hidden;rotatable=0;points=[[0,0.5],[1,0.5]];portConstraint=eastwest;whiteSpace=wrap;html=1;" vertex="1" parent="Yjmmr0oVw0jeOqbne9gF-0">
          <mxGeometry y="74" width="160" height="24" as="geometry" />
        </mxCell>
        <mxCell id="Yjmmr0oVw0jeOqbne9gF-2" value="" style="line;strokeWidth=1;fillColor=none;align=left;verticalAlign=middle;spacingTop=-1;spacingLeft=3;spacingRight=3;rotatable=0;labelPosition=right;points=[];portConstraint=eastwest;strokeColor=inherit;" vertex="1" parent="Yjmmr0oVw0jeOqbne9gF-0">
          <mxGeometry y="98" width="160" height="4" as="geometry" />
        </mxCell>
        <mxCell id="Yjmmr0oVw0jeOqbne9gF-3" value="&lt;span style=&quot;text-wrap-mode: nowrap; background-color: rgb(255, 255, 255);&quot;&gt;+ addAmount()&lt;/span&gt;" style="text;strokeColor=none;fillColor=none;align=left;verticalAlign=top;spacingLeft=4;spacingRight=4;overflow=hidden;rotatable=0;points=[[0,0.5],[1,0.5]];portConstraint=eastwest;whiteSpace=wrap;html=1;" vertex="1" parent="Yjmmr0oVw0jeOqbne9gF-0">
          <mxGeometry y="102" width="160" height="28" as="geometry" />
        </mxCell>
        <mxCell id="Yjmmr0oVw0jeOqbne9gF-11" value="&lt;span style=&quot;&quot;&gt;&lt;font style=&quot;font-size: 7px;&quot;&gt;&lt;b&gt;1..*&lt;/b&gt;&lt;/font&gt;&lt;/span&gt;" style="text;align=center;fontStyle=0;verticalAlign=middle;spacingLeft=3;spacingRight=3;strokeColor=none;rotatable=0;points=[[0,0.5],[1,0.5]];portConstraint=eastwest;html=1;" vertex="1" parent="WIyWlLk6GJQsqaUBKTNV-1">
          <mxGeometry x="-189" y="364" width="20" height="10" as="geometry" />
        </mxCell>
        <mxCell id="Yjmmr0oVw0jeOqbne9gF-12" value="&lt;span style=&quot;&quot;&gt;&lt;font style=&quot;font-size: 7px;&quot;&gt;&lt;b&gt;1..1&lt;/b&gt;&lt;/font&gt;&lt;/span&gt;" style="text;align=center;fontStyle=0;verticalAlign=middle;spacingLeft=3;spacingRight=3;strokeColor=none;rotatable=0;points=[[0,0.5],[1,0.5]];portConstraint=eastwest;html=1;" vertex="1" parent="WIyWlLk6GJQsqaUBKTNV-1">
          <mxGeometry x="-150" y="263" width="20" height="10" as="geometry" />
        </mxCell>
      </root>
    </mxGraphModel>
  </diagram>
</mxfile>
